Coordinates
version=1
nRows=9
nColumns=36
inDegrees=yes

Units are S.I. units (second, meters, Newtons, ...)
If the header above contains a line with 'inDegrees', this indicates whether rotational values are in degrees (yes) or radians (no).

endheader
time	pelvis_tilt	pelvis_list	pelvis_rotation	pelvis_tx	pelvis_ty	pelvis_tz	hip_flexion_r	hip_adduction_r	hip_rotation_r	knee_angle_r	knee_angle_r_beta	ankle_angle_r	subtalar_angle_r	mtp_angle_r	hip_flexion_l	hip_adduction_l	hip_rotation_l	knee_angle_l	knee_angle_l_beta	ankle_angle_l	subtalar_angle_l	mtp_angle_l	lumbar_extension	lumbar_bending	lumbar_rotation	arm_flex_r	arm_add_r	arm_rot_r	elbow_flex_r	pro_sup_r	arm_flex_l	arm_add_l	arm_rot_l	elbow_flex_l	pro_sup_l
      1.62711860	     -3.19977791	     -0.61267647	      0.29335023	      0.29336109	      0.95055135	     -0.06455300	      5.07241043	     -2.21723629	     -0.59057681	      6.22331891	      0.10861741	      2.56705074	    -11.80376855	     -7.49997494	      5.66718465	     -5.09839607	     -5.32832962	      7.06828496	      0.12336484	     -0.13172045	     -8.08971446	     -7.49997494	     -4.55991482	     -2.76049315	      1.22828871	     67.88243637	     -7.75265173	      5.46961878	     40.96224346	     53.61939508	     74.88744312	     -5.71579976	     14.94235552	     32.64797418	     42.25975999
      1.64406780	     -3.52015565	     -0.54597536	      0.39931063	      0.29294865	      0.94996726	     -0.06494206	      5.51954631	     -2.36174865	     -0.72433261	      6.31101591	      0.11014801	      2.29931568	    -11.92455006	     -7.49997765	      6.21648108	     -4.97348437	     -5.14682775	      7.19144415	      0.12551438	     -0.39166855	     -8.31293385	     -7.49997765	     -3.93460376	     -2.85662516	      0.96408399	     67.88596846	     -6.83918666	      4.35494051	     40.97465054	     53.59992371	     75.03423238	     -5.55132687	     13.94360052	     31.82146633	     41.84428894
      1.66101700	     -3.43938057	     -0.50318097	      0.42018351	      0.29351658	      0.95016796	     -0.06459820	      5.50513858	     -2.47240552	     -0.84164180	      6.35871054	      0.11098044	      2.21339138	    -11.95565074	     -7.49997971	      6.21589686	     -4.87505511	     -5.17438857	      7.16377502	      0.12503146	     -0.48357896	     -8.10839232	     -7.49997971	     -3.78379197	     -2.89520558	      0.78773847	     67.83768328	     -6.22176476	      3.68054138	     41.41420252	     53.84217670	     74.94984666	     -5.52134124	     13.24661767	     31.96375819	     42.33688469
      1.67796610	     -3.55110002	     -0.50159220	      0.43986317	      0.29305673	      0.94977328	     -0.06499011	      5.70992398	     -2.51749917	     -0.83480746	      6.45584543	      0.11267576	      2.02492612	    -12.16568651	     -7.49998634	      6.45490456	     -4.82518929	     -5.09050910	      7.22274575	      0.12606069	     -0.48351299	     -8.00777552	     -7.49998634	     -3.40736616	     -2.92049262	      0.69006616	     67.77312108	     -5.65534803	      2.28133222	     41.56597008	     54.07652246	     75.23209057	     -5.42618344	     14.34897943	     31.40701355	     38.59086736
      1.69491520	     -3.53716510	     -0.51419786	      0.46830580	      0.29362681	      0.95001689	     -0.06461629	      5.73185887	     -2.53416828	     -0.85185425	      6.52922421	      0.11395646	      1.89483924	    -12.27049884	     -7.49998746	      6.49346530	     -4.79933261	     -5.01678863	      7.22478315	      0.12609625	     -0.49298206	     -7.94919237	     -7.49998746	     -3.30796089	     -2.84450701	      0.63144166	     67.74214693	     -5.33808900	      1.62558902	     41.83115142	     54.27625468	     75.07729802	     -5.56111499	     13.67165370	     31.73666713	     39.37172316
      1.71186440	     -3.53621887	     -0.55889071	      0.52053708	      0.29317295	      0.94991418	     -0.06499948	      5.75926608	     -2.53860700	     -0.96924657	      6.65320986	      0.11612042	      1.66097085	    -12.52633554	     -7.49998883	      6.55324119	     -4.80759991	     -4.95788656	      7.23807859	      0.12632830	     -0.45335882	     -7.88899216	     -7.49998883	     -3.41795409	     -2.65425354	      0.64016177	     68.00244037	     -5.24230975	      0.84269383	     41.97487663	     54.58027034	     75.32211479	     -5.69832934	     12.77561780	     32.01851865	     40.54658686
      1.72881360	     -3.59825197	     -0.61732608	      0.65029000	      0.29372798	      0.95011598	     -0.06473270	      5.87810337	     -2.49942730	     -1.06299298	      6.82542757	      0.11912618	      1.40217472	    -12.85130179	     -7.49998972	      6.70198418	     -4.84090917	     -4.72586427	      7.31305280	      0.12763685	     -0.46650881	     -7.93087994	     -7.49998972	     -3.38062323	     -2.46238313	      0.68968838	     68.24666533	     -5.61282339	      0.64320941	     42.06461479	     54.71442431	     75.58952149	     -5.65837928	     12.37221627	     32.16560605	     41.05256090
      1.74576270	     -3.67793525	     -0.68002599	      0.83787935	      0.29329853	      0.94983677	     -0.06533735	      6.01145859	     -2.45244272	     -1.17623965	      6.99079917	      0.12201246	      1.21534593	    -13.16622502	     -7.49999013	      6.91021325	     -4.87452498	     -4.40860530	      7.45471385	      0.13010930	     -0.48273911	     -8.02698621	     -7.49999013	     -3.34332447	     -2.29517480	      0.82863903	     68.65072322	     -6.31061443	      0.79735856	     41.91894628	     54.65109881	     76.03781317	     -5.49522257	     12.39990566	     32.15948606	     40.96700229
      1.76271190	     -3.66396025	     -0.71789752	      0.93964353	      0.29379256	      0.94997065	     -0.06502023	      6.01570870	     -2.43237596	     -1.27896090	      7.07202385	      0.12343010	      1.12140886	    -13.43316779	     -7.49999093	      6.94792543	     -4.91574281	     -4.25499442	      7.50525781	      0.13099146	     -0.45697454	     -7.92925271	     -7.49999093	     -3.34799361	     -2.16878840	      1.16115721	     69.08523537	     -6.84768080	      0.93198584	     41.85052861	     54.64705473	     76.39512732	     -5.19547416	     12.27698274	     32.40588785	     41.22307738
